<?xml version="1.0" encoding="UTF-8"?>
<svg version="1.1" xmlns="http://www.w3.org/2000/svg" width="512" height="512">
<path d="M0 0 C0.83672745 -0.00807175 1.6734549 -0.01614349 2.53553772 -0.02445984 C4.31346564 -0.0383106 6.09142026 -0.04902831 7.86938477 -0.05688477 C10.55603768 -0.07395433 13.24141302 -0.11781168 15.92773438 -0.16210938 C30.41484799 -0.29527898 40.95066144 1.73582412 51.66015625 12.23828125 C62.17629947 23.77211575 65.31273741 46.63697363 65.76953125 61.890625 C65.7334375 62.66535156 65.69734375 63.44007812 65.66015625 64.23828125 C72.66410631 63.34889077 75.87606069 61.52674875 80.9140625 56.70703125 C114.97111038 26.08959987 165.46609729 9.23324113 210.59765625 7.86328125 C218.00582356 7.63303873 223.69863397 6.20390175 230.6171875 3.44921875 C246.6630385 -2.93616483 265.95429544 -0.59365506 281.72265625 5.36328125 C289.91783915 9.00071537 297.76597272 14.02033107 303.8125 20.671875 C308.26734991 25.22520505 313.6525185 27.38604613 319.41015625 29.92578125 C336.69942991 37.91194111 351.70696575 47.61720208 366.15234375 60.00830078 C370.17558194 63.29021043 373.02576098 63.52286817 378.00561523 63.49365234 C378.75065308 63.4972728 379.49569092 63.50089325 380.26330566 63.50462341 C381.8805818 63.51151526 383.49788118 63.51402324 385.11517143 63.51267624 C387.67484675 63.51171174 390.23410128 63.52464347 392.79371643 63.54165649 C400.07085923 63.58795548 407.34795915 63.61254042 414.62524414 63.61914062 C419.07684157 63.62415182 423.52799962 63.64838086 427.97944832 63.68446732 C429.67588731 63.69427408 431.37238668 63.69659247 433.06884575 63.69129562 C435.44147668 63.68423471 437.81279581 63.70148511 440.18530273 63.72412109 C440.88621536 63.71594864 441.58712799 63.70777618 442.3092804 63.69935608 C445.44302354 63.75257462 447.30409323 63.97103174 449.8394928 65.87402153 C452.20545588 68.94639122 452.16527004 70.71615272 452.17481995 74.57196045 C452.1875444 75.87535873 452.20026886 77.17875702 452.21337891 78.52165222 C452.20719619 79.96463194 452.20059013 81.40760989 452.19360352 82.85058594 C452.20066218 84.37200253 452.20940698 85.8934121 452.2197113 87.41481018 C452.24224283 91.54992798 452.23925367 95.68466359 452.23038983 99.81981945 C452.22527638 103.28060057 452.2325769 106.74131008 452.23986191 110.20208383 C452.25687898 118.38104265 452.25328419 126.55981508 452.23657227 134.73876953 C452.21971935 143.14340658 452.23538659 151.54752164 452.26779515 159.95210147 C452.29462544 167.18723069 452.30172896 174.4221988 452.29328007 181.65737271 C452.28838108 185.96939982 452.29039761 190.28111441 452.31106758 194.5931015 C452.32963187 198.66122787 452.32321768 202.72861679 452.29886818 206.79670525 C452.29392168 208.27676222 452.29718627 209.75687735 452.31001663 211.23688698 C452.38541511 220.69527318 450.98654199 228.76966162 447.82632351 237.63481522 C445.99973581 243.27898564 445.59558018 248.91381554 445.16015625 254.80078125 C441.44700441 294.88453765 427.23815548 335.69762517 401.66015625 367.23828125 C402.25262146 367.24192688 402.84508667 367.24557251 403.45550537 367.24932861 C409.62015048 367.29112832 415.78404931 367.36045583 421.94824219 367.44580078 C424.24894752 367.47403229 426.54975024 367.49523591 428.85058594 367.50927734 C432.15740904 367.53067611 435.46305851 367.57731233 438.76953125 367.62890625 C439.79882751 367.63013489 440.82812378 367.63136353 441.88861084 367.63262939 C449.02471036 367.77910069 449.02471036 367.77910069 452.30761719 370.15136719 C453.7671285 372.40333518 454.20176636 373.57523428 454.16015625 376.23828125 C454.17046875 376.89828125 454.18078125 377.55828125 454.19140625 378.23828125 C453.40988681 381.1804721 452.01063093 382.33490044 449.66015625 384.23828125 C446.81433105 384.73034668 446.81433105 384.73034668 443.48632812 384.72070312 C441.6141864 384.73091492 441.6141864 384.73091492 439.70422363 384.74133301 C439.04024063 384.73565811 438.37625763 384.72998322 437.69215393 384.72413635 C435.60677092 384.70684774 433.5227709 384.71439379 431.43737793 384.72839355 C426.26019933 384.75801778 421.08328671 384.74485079 415.90606689 384.73321533 C411.52760662 384.7250104 407.14975169 384.73295123 402.77137756 384.76234436 C400.71923069 384.76943511 398.66815147 384.75276796 396.61608887 384.73522949 C394.74394714 384.74544128 394.74394714 384.74544128 392.83398438 384.75585938 C391.73574341 384.752677 390.63750244 384.74949463 389.50598145 384.74621582 C386.03283327 385.3467503 384.85799107 386.55610168 382.66015625 389.23828125 C384.2534375 389.94791016 384.2534375 389.94791016 385.87890625 390.671875 C399.13531423 396.78925287 406.61499163 403.72085324 411.91015625 417.48828125 C414.04093569 428.14217847 412.84655845 438.16481854 407.28515625 447.55078125 C405.0733015 450.8420741 402.61609435 453.57793696 399.66015625 456.23828125 C398.91765625 456.91890625 398.17515625 457.59953125 397.41015625 458.30078125 C388.9294779 464.27580463 379.90528223 466.14150394 369.66015625 465.23828125 C358.31260042 463.00111466 349.58489262 458.04507357 342.9453125 448.46484375 C338.48309185 440.73394475 337.40768713 434.03154338 337.66015625 425.23828125 C337.02851563 425.5849585 336.396875 425.93163574 335.74609375 426.28881836 C312.54106285 438.92995956 289.60539402 447.95411877 263.66015625 453.23828125 C262.84740234 453.41617187 262.03464844 453.5940625 261.19726562 453.77734375 C236.18802772 459.12282971 201.11114504 460.38861085 176.66015625 452.23828125 C176.33015625 453.22828125 176.00015625 454.21828125 175.66015625 455.23828125 C166.20090888 463.03302586 155.83282264 466.31143824 143.66015625 465.23828125 C132.29333948 462.99731737 123.62330504 458.03538993 116.94140625 448.4765625 C113.97083569 443.28712063 111.74363588 437.73432227 111.54296875 431.734375 C110.42364153 427.30164112 108.912961 426.46730705 105.13769531 424.16992188 C104.38198242 423.73873047 103.62626953 423.30753906 102.84765625 422.86328125 C101.28183921 421.91085687 99.71804375 420.9551013 98.15625 419.99609375 C97.00165283 419.29661621 97.00165283 419.29661621 95.82373047 418.58300781 C75.58064339 406.0013193 56.99254314 388.08765764 42.91162109 368.93847656 C41.66283184 367.24191621 40.39128522 365.5643215 39.1171875 363.88671875 C32.35694437 354.85261126 26.85026504 345.24404117 21.66015625 335.23828125 C21.07403564 334.11510498 21.07403564 334.11510498 20.47607422 332.96923828 C4.34104287 301.6538711 -2.79880381 267.59742009 -2.65234375 232.55078125 C-2.6501886 231.62186066 -2.64803345 230.69294006 -2.64581299 229.73587036 C-2.59595188 216.34758649 -2.23217491 203.35688489 0.66015625 190.23828125 C0.86415039 189.2622998 1.06814453 188.28631836 1.27832031 187.28076172 C9.07169658 150.44089356 24.78401371 116.28414313 49.54370117 87.74609375 C51.18133264 85.53441391 51.70669118 83.76585605 51.46565247 81.03315735 C51.24059273 79.74697762 51.24059273 79.74697762 51.01098633 78.43481445 C50.75995903 76.97233025 50.75995903 76.97233025 50.50386047 75.4803009 C50.31438339 74.42719223 50.12490631 73.37408356 49.9296875 72.2890625 C49.73799484 71.20247849 49.54630219 70.11589447 49.34880066 68.99638367 C48.93976409 66.69327046 48.52675487 64.39085985 48.11010742 62.08911133 C47.47874933 58.58460237 46.86857461 55.07684631 46.25976562 51.56835938 C45.85936698 49.3291953 45.45771393 47.09025509 45.0546875 44.8515625 C44.87533157 43.80857498 44.69597565 42.76558746 44.51118469 41.69099426 C42.80434695 32.45595307 40.46775019 25.76866029 32.66015625 20.23828125 C27.45815475 16.98703031 21.40479335 17.11179435 15.43359375 17.02734375 C14.0585813 16.99930167 12.68358143 16.97063744 11.30859375 16.94140625 C9.16471362 16.90004522 7.02107552 16.86310922 4.87695312 16.83691406 C2.79119098 16.80929438 0.70645795 16.76346631 -1.37890625 16.71484375 C-2.61850098 16.69502441 -3.8580957 16.67520508 -5.13525391 16.65478516 C-8.54970197 16.21100576 -9.96759127 15.69472194 -12.33984375 13.23828125 C-13.44357753 9.26483964 -13.75527958 7.14828353 -12.02734375 3.36328125 C-8.77496676 -0.73230459 -4.85351754 0.04435846 0 0 Z " fill="#626199" transform="translate(34.33984375,23.76171875)"/>
<path d="M0 0 C36.96 0 73.92 0 112 0 C112.99 3.96 113.98 7.92 115 12 C121.25344832 31.89538867 133.41339715 46.42258932 151.75 56.1875 C162.50160078 61.25747104 171.87504895 63.34833511 183.6875 63.4375 C184.63729736 63.44765137 185.58709473 63.45780273 186.56567383 63.46826172 C202.1212137 63.27709887 216.44792501 56.86028823 229 48 C229.63550781 47.55140625 230.27101563 47.1028125 230.92578125 46.640625 C245.73990888 35.06176662 251.36310878 17.38834208 256 0 C292.63 0 329.26 0 367 0 C367.16121214 35.12633338 367.16121214 35.12633338 367.1953125 49.890625 C367.21901056 60.0690928 367.24680987 70.24742776 367.30175781 80.42578125 C367.34176398 87.83994139 367.36746547 95.25399334 367.37635398 102.66825843 C367.38154555 106.59011471 367.39365234 110.51166164 367.42292023 114.43341827 C367.45030791 118.13362699 367.45839858 121.8334024 367.45243073 125.53370285 C367.45403572 127.52100945 367.47543521 129.50827014 367.49768066 131.49545288 C367.43820391 144.59765843 363.92748109 155.26635841 355 165 C346.01527194 173.00409403 336.85540937 175.88509886 325.25 178 C324.34024414 178.16951172 323.43048828 178.33902344 322.49316406 178.51367188 C315.45311803 179.79808647 308.39270631 180.8659628 301.30296326 181.83418274 C294.70782993 182.73740187 288.13683688 183.75734452 281.56640625 184.82421875 C272.52116114 186.28191392 263.47228437 187.71301814 254.41796875 189.11328125 C253.26949966 189.29091507 252.12103058 189.46854889 250.9377594 189.65156555 C248.57021304 190.01752097 246.20264377 190.38332825 243.83505249 190.74899292 C222.49597507 194.04564766 201.16369887 197.38165116 179.8425293 200.79223633 C179.00473434 200.92621323 178.16693939 201.06019012 177.30375671 201.19822693 C175.70176036 201.45447486 174.09979967 201.71094585 172.49787903 201.96766663 C167.92227563 202.69928322 163.34358342 203.40606636 158.76171875 204.09765625 C154.34569014 204.77249735 149.9924145 205.56339829 145.625 206.5 C139.56583888 207.7376945 133.5319621 208.63473747 127.3984375 209.40625 C118.56944326 210.55731396 109.78987553 212.09024936 101.00195312 213.51513672 C96.8363787 214.18794339 92.66842297 214.84511738 88.5 215.5 C80.99921037 216.68252745 73.49910895 217.86935951 66 219.0625 C64.97326172 219.22492188 63.94652344 219.38734375 62.88867188 219.5546875 C57.03096533 220.48857979 51.198241 221.50030423 45.375 222.63061523 C43 223 43 223 39 223 C38.81566406 221.76378906 38.63132813 220.52757812 38.44140625 219.25390625 C36.02232435 203.45186249 33.14303489 187.74662846 30.22662354 172.03024292 C27.17719231 155.58147726 24.26177248 139.11384619 21.4375 122.625 C18.70260739 106.66373994 15.87429888 90.72623528 12.875 74.8125 C10.1663025 60.43709964 7.57945303 46.04609958 5.125 31.625 C4.97947693 30.77136871 4.83395386 29.91773743 4.684021 29.03823853 C4.269369 26.60130541 3.85675484 24.16403943 3.4453125 21.7265625 C3.32794739 21.03351517 3.21058228 20.34046783 3.08966064 19.62641907 C1.99409123 13.09284583 1.00767892 6.54991298 0 0 Z " fill="#C8C0F4" transform="translate(103,104)"/>
<path d="M0 0 C0.66 0 1.32 0 2 0 C6.28717867 23.29196038 10.48148219 46.59757768 14.5 69.9375 C18.10253471 90.85765507 21.77836358 111.76348062 25.5120697 132.66059875 C26.71428161 139.39121401 27.90927326 146.12308926 29.1015625 152.85546875 C29.62516696 155.8100603 30.14885197 158.76463756 30.6725769 161.71920776 C31.01338629 163.64244886 31.35398592 165.56572714 31.69436646 167.48904419 C33.29439632 176.52634228 34.90020346 185.5614726 36.61328125 194.578125 C36.85087158 195.83286621 37.08846191 197.08760742 37.33325195 198.38037109 C37.75934011 200.61362845 38.19092708 202.84584827 38.62963867 205.07666016 C39.6006406 210.15136697 40.23032391 214.83210717 40 220 C38.576875 220.37125 38.576875 220.37125 37.125 220.75 C25.45005633 224.13949978 13.10571942 229.7935879 5.8828125 239.98828125 C0.36984117 250.41392259 -1.18558109 260.35046619 2.125 271.9375 C6.22007609 281.91805754 12.54306905 288.48893108 22.1875 293.1875 C32.13552628 297.19509925 42.11440969 298.44523181 52.76264954 298.39872742 C53.97840501 298.40537424 55.19416047 298.41202107 56.44675702 298.41886932 C59.78101015 298.43416426 63.11478198 298.43636091 66.44903505 298.43273985 C70.0596463 298.43211125 73.67018516 298.44878019 77.28076172 298.46325684 C83.52294274 298.48596027 89.76506827 298.49791361 96.00728798 298.50238609 C105.03226833 298.50886821 114.05714872 298.53184164 123.08208861 298.55872939 C137.72748182 298.60191912 152.37287079 298.6319304 167.01831055 298.65356445 C181.23773271 298.67459763 195.45712033 298.70189307 209.67651367 298.73754883 C210.55426196 298.73974765 211.43201025 298.74194648 212.33635698 298.74421193 C216.74014001 298.75528217 221.14392272 298.76647487 225.54770529 298.77772844 C262.03177369 298.87080281 298.51585912 298.94245199 335 299 C333.68 300.65 332.36 302.3 331 304 C332.59328125 304.70962891 332.59328125 304.70962891 334.21875 305.43359375 C347.47515798 311.55097162 354.95483538 318.48257199 360.25 332.25 C362.38077944 342.90389722 361.1864022 352.92653729 355.625 362.3125 C353.41314525 365.60379285 350.9559381 368.33965571 348 371 C347.2575 371.680625 346.515 372.36125 345.75 373.0625 C337.26932165 379.03752338 328.24512598 380.90322269 318 380 C306.65244417 377.76283341 297.92473637 372.80679232 291.28515625 363.2265625 C286.8229356 355.4956635 285.74753088 348.79326213 286 340 C285.36835938 340.34667725 284.73671875 340.69335449 284.0859375 341.05053711 C260.8809066 353.69167831 237.94523777 362.71583752 212 368 C211.18724609 368.17789062 210.37449219 368.35578125 209.53710938 368.5390625 C184.52787147 373.88454846 149.45098879 375.1503296 125 367 C124.67 367.99 124.34 368.98 124 370 C114.54075263 377.79474461 104.17266639 381.07315699 92 380 C80.63318323 377.75903612 71.96314879 372.79710868 65.28125 363.23828125 C62.31067944 358.04883938 60.08347963 352.49604102 59.8828125 346.49609375 C58.76348528 342.06335987 57.25280475 341.2290258 53.47753906 338.93164062 C52.72182617 338.50044922 51.96611328 338.06925781 51.1875 337.625 C49.62168296 336.67257562 48.0578875 335.71682005 46.49609375 334.7578125 C45.34149658 334.05833496 45.34149658 334.05833496 44.16357422 333.34472656 C23.92048714 320.76303805 5.33238689 302.84937639 -8.74853516 283.70019531 C-9.99732441 282.00363496 -11.26887103 280.32604025 -12.54296875 278.6484375 C-19.30321188 269.61433001 -24.80989121 260.00575992 -30 250 C-30.58612061 248.87682373 -30.58612061 248.87682373 -31.18408203 247.73095703 C-47.31911338 216.41558985 -54.45896006 182.35913884 -54.3125 147.3125 C-54.31034485 146.38357941 -54.3081897 145.45465881 -54.30596924 144.49758911 C-54.25610813 131.10930524 -53.89233116 118.11860364 -51 105 C-50.79600586 104.02401855 -50.59201172 103.04803711 -50.38183594 102.04248047 C-42.64477637 65.46882554 -26.87498335 26.87498335 0 0 Z " fill="#E0E0EE" transform="translate(86,109)"/>
<path d="M0 0 C0.33 0 0.66 0 1 0 C3.30841083 41.2949049 -15.00879819 88.08884005 -39 121 C-39.60373695 122.01640249 -40.20747391 123.03280499 -40.82950592 124.08000755 C-42.65985798 126.23657566 -43.6790585 126.92748768 -46.4665947 127.55729318 C-49.72644045 127.77164352 -52.9398392 127.7894494 -56.20666504 127.7484436 C-57.45949893 127.75639242 -58.71233283 127.76434123 -60.00313139 127.77253091 C-63.47877906 127.79371003 -66.95339844 127.7774456 -70.42900133 127.75502992 C-74.17839048 127.73735013 -77.92764472 127.75423212 -81.67703247 127.76675415 C-89.02355 127.78574151 -96.36967491 127.77251849 -103.71616334 127.74822827 C-112.27748103 127.72097793 -120.83870531 127.72426527 -129.40005535 127.72849493 C-144.68507834 127.73487716 -159.96991508 127.7115316 -175.25488281 127.67236328 C-190.07069582 127.63440734 -204.88629028 127.62017392 -219.70214844 127.63134766 C-235.84081734 127.64348307 -251.97939008 127.64306878 -268.11805105 127.62037599 C-269.84177748 127.61796151 -271.56550391 127.61554954 -273.28923035 127.61314011 C-274.13727211 127.61193303 -274.98531388 127.61072595 -275.85905388 127.6094823 C-281.8187108 127.60174278 -287.77833182 127.60250414 -293.73799133 127.6063118 C-301.01285695 127.61057122 -308.28753175 127.59999243 -315.56234378 127.57108469 C-319.27031147 127.55666565 -322.97800233 127.54838267 -326.68599319 127.55757141 C-330.71675421 127.5673163 -334.74676663 127.54576564 -338.77746582 127.52139282 C-339.93460036 127.52895147 -341.0917349 127.53651012 -342.28393412 127.54429781 C-352.9374045 127.43088375 -364.65568804 125.43122034 -372.42578125 117.5546875 C-377.04819182 112.37237931 -377.4936943 107.64392962 -377.39453125 100.8828125 C-376.57467078 94.89214885 -373.39751287 90.85391435 -368.69140625 87.21484375 C-358.95739908 81.0342807 -348.62802798 79.22289032 -337.375 77.4375 C-336.11042969 77.22931641 -334.84585938 77.02113281 -333.54296875 76.80664062 C-325.77290145 75.54331164 -317.99495473 74.43832072 -310.1862793 73.44946289 C-307.55556941 73.07836972 -305.01892977 72.61666432 -302.4375 72 C-297.82201564 70.89905878 -293.17554308 70.28605673 -288.47705078 69.64233398 C-283.35548123 68.92073865 -278.25075469 68.09959391 -273.14453125 67.27734375 C-272.07040482 67.10493668 -270.99627838 66.9325296 -269.88960266 66.75489807 C-260.72060375 65.28127211 -251.55360686 63.79528131 -242.38671875 62.30859375 C-241.66865177 62.19215012 -240.95058479 62.07570648 -240.21075821 61.95573425 C-238.00964 61.59878228 -235.808529 61.24178593 -233.60742188 60.88476562 C-232.87478559 60.76593269 -232.14214931 60.64709976 -231.38731194 60.52466583 C-227.65419992 59.91906875 -223.92115789 59.31304478 -220.18823242 58.70629883 C-189.67190228 53.74695453 -189.67190228 53.74695453 -175.08789062 51.60546875 C-169.08891293 50.72425042 -163.10085573 49.77165499 -157.11328125 48.81640625 C-156.29811035 48.68637207 -155.48293945 48.55633789 -154.64306641 48.42236328 C-148.62614903 47.46085699 -142.60928374 46.49902085 -136.59301758 45.53344727 C-132.04941731 44.80482436 -127.50552446 44.07841364 -122.95947266 43.36523438 C-109.96525937 41.3256409 -96.98258601 39.21746112 -84.00195312 37.09326172 C-80.37388617 36.49981781 -76.74554322 35.90808174 -73.1171875 35.31640625 C-63.12519146 33.68442997 -53.13283763 32.05223621 -43.15625 30.328125 C-41.26229492 30.00183105 -41.26229492 30.00183105 -39.33007812 29.66894531 C-26.29858436 27.0511819 -14.44058153 20.37564935 -6 10 C-4.26438864 7.35110842 -2.66063733 4.67755636 -1.12890625 1.90625 C-0.75636719 1.2771875 -0.38382812 0.648125 0 0 Z " fill="#E0E0EE" transform="translate(479,265)"/>
<path d="M0 0 C12.24878469 8.91778988 21.0260878 20.5986859 24.26953125 35.65234375 C25.91332559 54.70579287 22.96272979 70.82504614 10.4296875 85.859375 C0.0218129 96.9909055 -13.6628337 103.64615775 -28.85107422 104.24414062 C-46.25252358 104.44480173 -59.93282856 98.9943621 -72.91796875 87.21484375 C-83.25662084 76.39876982 -88.68776618 61.38615419 -89.10546875 46.58984375 C-88.6981503 31.71457392 -82.53789169 17.59468356 -72.1796875 6.90234375 C-51.69257744 -11.91835066 -23.62112761 -15.39486427 0 0 Z " fill="#FD9495" transform="translate(318.73046875,49.34765625)"/>
<path d="M0 0 C9.9 0 19.8 0 30 0 C31.10049147 6.18806057 32.2009812 12.37612145 33.30140686 18.56419373 C34.03481729 22.68841279 34.76824794 26.81262826 35.50175285 30.93683052 C38.34197778 46.90627805 41.18115204 62.87591069 44.0166055 78.84620619 C45.11480112 85.03145057 46.21327071 91.2166463 47.31183648 97.40182495 C47.58616949 98.9463889 47.8604918 100.49095474 48.13480353 102.03552246 C51.47425579 120.83840069 54.82611048 139.6388835 58.21525574 158.43288231 C59.21666623 163.99047089 60.21372244 169.54884238 61.21059036 175.10724735 C62.09977115 180.06169059 62.99685749 185.01461732 63.89992046 189.96654797 C64.44229958 192.95100702 64.97729722 195.93675158 65.51005745 198.92294121 C65.86428727 200.89516914 66.22777568 202.86572733 66.59165955 204.8361969 C66.89735619 206.56204262 66.89735619 206.56204262 67.20922852 208.32275391 C67.38776871 209.30788971 67.5663089 210.29302551 67.7502594 211.30801392 C68.01042358 214.11235708 67.69563947 216.28394004 67 219 C63.08422732 219.6719902 59.1672478 220.33666742 55.25 221 C54.13882813 221.19078125 53.02765625 221.3815625 51.8828125 221.578125 C50.81289062 221.75859375 49.74296875 221.9390625 48.640625 222.125 C47.65610352 222.29257812 46.67158203 222.46015625 45.65722656 222.6328125 C43 223 43 223 39 223 C38.81566406 221.76378906 38.63132813 220.52757812 38.44140625 219.25390625 C36.02232435 203.45186249 33.14303489 187.74662846 30.22662354 172.03024292 C27.17719231 155.58147726 24.26177248 139.11384619 21.4375 122.625 C18.70260739 106.66373994 15.87429888 90.72623528 12.875 74.8125 C10.1663025 60.43709964 7.57945303 46.04609958 5.125 31.625 C4.97947693 30.77136871 4.83395386 29.91773743 4.684021 29.03823853 C4.269369 26.60130541 3.85675484 24.16403943 3.4453125 21.7265625 C3.32794739 21.03351517 3.21058228 20.34046783 3.08966064 19.62641907 C1.99409123 13.09284583 1.00767892 6.54991298 0 0 Z " fill="#E3DFF9" transform="translate(103,104)"/>
<path d="M0 0 C36.63 0 73.26 0 111 0 C111.16121214 35.12633338 111.16121214 35.12633338 111.1953125 49.890625 C111.21901056 60.0690928 111.24680987 70.24742776 111.30175781 80.42578125 C111.34176398 87.83994139 111.36746547 95.25399334 111.37635398 102.66825843 C111.38154555 106.59011471 111.39365234 110.51166164 111.42292023 114.43341827 C111.45030791 118.13362699 111.45839858 121.8334024 111.45243073 125.53370285 C111.45403572 127.52100945 111.47543521 129.50827014 111.49768066 131.49545288 C111.43820391 144.59765843 107.92748109 155.26635841 99 165 C89.70191814 173.28324696 80.24611552 175.98849737 68.25 178.1875 C66.87134766 178.45336914 66.87134766 178.45336914 65.46484375 178.72460938 C61.23163618 179.51795291 57.32029347 180.09435674 53 180 C55.99272094 177.66061955 59.10544852 175.74034478 62.375 173.8125 C70.86609735 168.41935295 76.18658544 160.58664671 78.53771877 150.75038624 C79.04574388 147.72784242 79.13989515 144.88325375 79.15821838 141.81803894 C79.1680072 140.57428497 79.17779602 139.33053101 79.18788147 138.04908752 C79.19378484 136.67880287 79.19959534 135.30851782 79.20532227 133.93823242 C79.21490679 132.48923466 79.22491721 131.04023967 79.23532104 129.59124756 C79.26231395 125.66400065 79.28335384 121.73674179 79.30332303 117.80945373 C79.32521728 113.70280652 79.35258912 109.59619591 79.37937927 105.48957825 C79.42925969 97.71595998 79.47421575 89.94232135 79.51740164 82.16866332 C79.57605463 71.66210239 79.64231649 61.15558962 79.70815182 50.64907169 C79.81165374 34.0994136 79.90499126 17.54971408 80 1 C53.6 1 27.2 1 0 1 C0 0.67 0 0.34 0 0 Z " fill="#9D9DCB" transform="translate(359,104)"/>
<path d="M0 0 C9.2211248 6.58250766 14.91615103 14.82152337 17 26 C18.08347819 37.22067829 15.82974022 46.96776958 9 56 C6.5 58.75 6.5 58.75 4 61 C3.2575 61.680625 2.515 62.36125 1.75 63.0625 C-6.73067835 69.03752338 -15.75487402 70.90322269 -26 70 C-37.34062425 67.76419997 -46.09343179 62.80965312 -52.71484375 53.21875 C-58.5125746 43.2092937 -59.71770386 32.41816454 -56.81640625 21.21875 C-52.47837792 9.42927587 -44.83867421 2.47838787 -33.76953125 -2.8359375 C-22.76787109 -7.46004854 -10.13318287 -6.00431065 0 0 Z " fill="#616199" transform="translate(430,419)"/>
<path d="M0 0 C5.18603982 3.78347145 9.13769701 8.01711186 12.52734375 13.45703125 C12.94113281 14.07578125 13.35492188 14.69453125 13.78125 15.33203125 C18.32622786 23.44014507 17.8378217 34.67031402 15.83203125 43.52734375 C14.91049549 45.99767909 13.84650137 48.17624471 12.52734375 50.45703125 C12.10324219 51.24464844 11.67914063 52.03226562 11.2421875 52.84375 C6.43696014 60.94169583 -0.78191221 65.28156708 -9.47265625 68.45703125 C-20.353195 70.9816007 -31.38753648 69.64032319 -41.0859375 63.9140625 C-49.58746384 57.67008433 -55.11969603 49.79419355 -57.47265625 39.45703125 C-58.68245738 28.61820072 -57.02903376 19.20137295 -50.72265625 10.20703125 C-37.89399709 -5.4831584 -18.02751078 -11.24939456 0 0 Z " fill="#62629A" transform="translate(203.47265625,419.54296875)"/>
<path d="M0 0 C-3.37200691 2.74508144 -6.81936461 5.31132955 -10.375 7.8125 C-27.01381915 19.97420717 -34.088538 36.35415201 -39 56 C-74.64 56 -110.28 56 -147 56 C-109.8167369 18.8167369 -52.04291613 -1.6058957 0 0 Z " fill="#E0E0EE" transform="translate(254,32)"/>
<path d="M0 0 C2.3515625 1.546875 2.3515625 1.546875 4.625 3.75 C5.470625 4.55824219 6.31625 5.36648437 7.1875 6.19921875 C8.115625 7.12347656 9.04375 8.04773438 10 9 C11.1041385 10.08987229 12.20830621 11.17971498 13.3125 12.26953125 C16.22813677 15.16043755 19.11907364 18.07452323 22 21 C25.68694146 17.93852182 29.20636502 14.86986844 32.5 11.38671875 C33.0775 10.77892578 33.655 10.17113281 34.25 9.54492188 C35.42645084 8.29625586 36.59302489 7.03821717 37.75 5.77148438 C40.77301091 2.62363931 42.43762175 1.15098188 46.75390625 -0.0078125 C50 0 50 0 52.9375 1.4375 C55.19040803 4.23656756 55.79196959 6.05634583 55.69750977 9.64868164 C54.09067148 15.06536332 49.01636888 18.76586245 45 22.5 C44.03464044 23.42519024 43.07107725 24.35225871 42.109375 25.28125 C39.75658658 27.53992689 37.38722768 29.77784658 35 32 C36.45042909 35.34584964 38.27738825 37.50054036 40.87890625 40.0390625 C41.63494141 40.78414062 42.39097656 41.52921875 43.16992188 42.296875 C44.35424805 43.44929688 44.35424805 43.44929688 45.5625 44.625 C47.12847891 46.15663169 48.69238939 47.69038195 50.25390625 49.2265625 C51.29526733 50.24097412 51.29526733 50.24097412 52.35766602 51.27587891 C54.74361439 53.78064588 54.98540448 54.84236839 55.3125 58.375 C55 62 55 62 53.4375 64.4375 C49.90550465 66.70159958 48.13858566 66.7587407 44 66 C40.94115047 64.07305955 38.5356934 61.56047216 36 59 C34.86790756 57.87948037 33.73503443 56.75974918 32.6015625 55.640625 C29.38004248 52.44753273 26.18540154 49.2291037 23 46 C19.53971687 47.46902461 17.48281547 49.37548574 14.953125 52.1328125 C14.19 52.93847656 13.426875 53.74414062 12.640625 54.57421875 C11.05024234 56.27114665 9.47198366 57.97952128 7.90625 59.69921875 C1.34627299 66.55637593 1.34627299 66.55637593 -3.421875 66.6875 C-7 66 -7 66 -9.5 63.875 C-11.274318 60.47422383 -11.45957006 58.79380976 -11 55 C-9.07226562 52.39111328 -9.07226562 52.39111328 -6.40625 49.8203125 C-5.94013306 49.36268524 -5.47401611 48.90505798 -4.99377441 48.43356323 C-3.50938773 46.98262463 -2.00549452 45.55399288 -0.5 44.125 C0.51308236 43.14202843 1.52481789 42.15766675 2.53515625 41.171875 C5.00804356 38.76495412 7.4988675 36.37759632 10 34 C8.89973587 30.6992076 8.17290663 30.07519718 5.5625 27.9375 C-10.49490521 14.31919431 -10.49490521 14.31919431 -11.4375 8.125 C-11 5 -11 5 -8.875 2.125 C-5.44669314 -0.40896594 -4.16783262 -0.49218124 0 0 Z " fill="#636198" transform="translate(264,63)"/>
<path d="M0 0 C12.24878469 8.91778988 21.0260878 20.5986859 24.26953125 35.65234375 C25.78799142 53.25302698 23.78021654 69.48347054 12.26953125 83.65234375 C10.64026764 85.03113149 8.98124243 86.3773534 7.26953125 87.65234375 C7.429375 86.5334375 7.58921875 85.41453125 7.75390625 84.26171875 C10.25115967 64.12429226 7.33807422 46.36263402 -4.73046875 29.65234375 C-3.74046875 28.90984375 -3.74046875 28.90984375 -2.73046875 28.15234375 C-0.62598563 25.52173986 -0.37262305 24.80608481 -0.23046875 21.58984375 C-0.3853312 17.75181649 -0.3853312 17.75181649 -2.29296875 15.58984375 C-5.78873581 14.24531796 -8.1406131 14.73856231 -11.73046875 15.65234375 C-13.6532996 17.06826202 -13.6532996 17.06826202 -14.73046875 18.65234375 C-17.105766 17.4792854 -19.45453123 16.26955913 -21.796875 15.03125 C-38.0423218 6.5908782 -52.64251831 5.04617329 -70.73046875 6.65234375 C-51.58904287 -12.81406389 -22.72703152 -14.81214492 0 0 Z " fill="#F27D86" transform="translate(318.73046875,49.34765625)"/>
<path d="M0 0 C4.96702439 2.80657069 9.25882565 7.39265129 11.8125 12.5 C12.63826453 20.37089486 12.86376361 27.26161641 7.76953125 33.65625 C2.67276409 38.45799471 -2.83207432 40.74741803 -9.8125 41.125 C-16.14596409 40.80295945 -20.24775156 38.36475486 -24.71875 34.0078125 C-29.13438667 29.0530574 -30.72329048 24.51090777 -30.5703125 17.9765625 C-29.67567762 12.18882253 -26.85657086 7.16907086 -22.75 3.0625 C-21.904375 2.546875 -21.05875 2.03125 -20.1875 1.5 C-19.300625 0.9225 -18.41375 0.345 -17.5 -0.25 C-11.64958365 -2.45770428 -5.78228202 -2.52623972 0 0 Z " fill="#C7BFF3" transform="translate(418.1875,431.5)"/>
<path d="M0 0 C4.96702439 2.80657069 9.25882565 7.39265129 11.8125 12.5 C12.63826453 20.37089486 12.86376361 27.26161641 7.76953125 33.65625 C2.67276409 38.45799471 -2.83207432 40.74741803 -9.8125 41.125 C-16.14596409 40.80295945 -20.24775156 38.36475486 -24.71875 34.0078125 C-29.13438667 29.0530574 -30.72329048 24.51090777 -30.5703125 17.9765625 C-29.67567762 12.18882253 -26.85657086 7.16907086 -22.75 3.0625 C-21.904375 2.546875 -21.05875 2.03125 -20.1875 1.5 C-19.300625 0.9225 -18.41375 0.345 -17.5 -0.25 C-11.64958365 -2.45770428 -5.78228202 -2.52623972 0 0 Z " fill="#C7BFF3" transform="translate(192.1875,431.5)"/>
<path d="M0 0 C6.77485007 2.00907225 12.89170464 4.75165875 19.125 8.0625 C20.04224854 8.54783203 20.95949707 9.03316406 21.90454102 9.53320312 C36.68302492 17.47565381 51.10167635 27.10167635 63 39 C47.82 39 32.64 39 17 39 C15.68 34.05 14.36 29.1 13 24 C11.75597718 21.03462553 10.57607925 18.35474148 9.0625 15.5625 C8.71767578 14.89927734 8.37285156 14.23605469 8.01757812 13.55273438 C5.56458796 8.88976054 2.9236051 4.38540765 0 0 Z " fill="#E0E0EE" transform="translate(342,49)"/>
<path d="M0 0 C1.02102334 3.06307003 0.9967238 5.40499592 0.88305664 8.59667969 C0.34485666 25.49876628 5.85024091 40.64309791 17.1875 53.3125 C26.67611209 63.38975595 40.60359509 72.54457474 54.84082031 73.11352539 C55.90913086 73.10828857 56.97744141 73.10305176 58.078125 73.09765625 C59.81835938 73.09282227 59.81835938 73.09282227 61.59375 73.08789062 C62.8003125 73.07951172 64.006875 73.07113281 65.25 73.0625 C66.47203125 73.05798828 67.6940625 73.05347656 68.953125 73.04882812 C71.96879946 73.03704815 74.98437498 73.02059853 78 73 C71.89892705 79.37368568 63.43602785 80.22797331 55.00244141 80.53027344 C37.50397052 80.72625156 23.89602859 75.43127175 10.8125 63.5625 C-0.4550027 51.77468269 -5.65259069 35.48459933 -5.296875 19.40625 C-4.69753752 12.52964099 -2.60318882 6.34951709 0 0 Z " fill="#FBB1B2" transform="translate(235,73)"/>
<path d="M0 0 C5.95307323 2.6445159 10.89056218 7.55065562 13.80859375 13.38671875 C14.68376247 21.72851682 14.52826745 27.98093241 9.4140625 34.8125 C7.80859375 36.38671875 7.80859375 36.38671875 4.80859375 37.38671875 C4.72222656 36.62488281 4.63585937 35.86304688 4.546875 35.078125 C3.21815797 25.31388336 0.57114833 17.81502234 -7.36328125 11.60546875 C-11.62124373 8.76682709 -15.95113115 6.65890276 -21.19140625 7.38671875 C-22.18140625 8.04671875 -23.17140625 8.70671875 -24.19140625 9.38671875 C-22.79366297 5.97243958 -21.36148096 4.54648655 -18.19140625 2.69921875 C-17.49015625 2.28285156 -16.78890625 1.86648438 -16.06640625 1.4375 C-10.99055399 -1.4070922 -5.63455546 -1.57687203 0 0 Z " fill="#9D9DCB" transform="translate(416.19140625,430.61328125)"/>
<path d="M0 0 C4.96702439 2.80657069 9.25882565 7.39265129 11.8125 12.5 C12.68766872 20.84179807 12.5321737 27.09421366 7.41796875 33.92578125 C5.8125 35.5 5.8125 35.5 2.8125 36.5 C2.72613281 35.73816406 2.63976562 34.97632813 2.55078125 34.19140625 C1.16356403 23.99726873 -1.78948498 16.64898747 -9.8515625 10.0078125 C-13.97830263 7.34406385 -18.5020378 5.8866901 -23.1875 4.5 C-16.83071278 -2.11624792 -8.450207 -3.69183801 0 0 Z " fill="#9D9DCB" transform="translate(192.1875,431.5)"/>
</svg>
